<svg width="180" height="180" viewBox="0 0 180 180" fill="none" xmlns="http://www.w3.org/2000/svg">
  <!-- 배경 그라데이션 -->
  <defs>
    <linearGradient id="bgGradient" x1="0" y1="0" x2="180" y2="180" gradientUnits="userSpaceOnUse">
      <stop offset="0%" stop-color="#2563eb"/>
      <stop offset="100%" stop-color="#10b981"/>
    </linearGradient>
    <linearGradient id="cardGradient" x1="0" y1="0" x2="90" y2="90" gradientUnits="userSpaceOnUse">
      <stop offset="0%" stop-color="#ffffff" stop-opacity="0.95"/>
      <stop offset="100%" stop-color="#ffffff" stop-opacity="0.85"/>
    </linearGradient>
  </defs>
  
  <!-- 배경 -->
  <rect width="180" height="180" rx="36" fill="url(#bgGradient)"/>
  
  <!-- 배너 카드 (주요 요소) -->
  <rect x="34" y="45" width="112" height="79" rx="11" fill="url(#cardGradient)" stroke="#ffffff" stroke-width="2.5" opacity="0.9"/>
  
  <!-- 텍스트 라인 1 (메인 카피) -->
  <rect x="50" y="62" width="80" height="11" rx="5.5" fill="#2563eb" opacity="0.8"/>
  
  <!-- 텍스트 라인 2 (서브 카피) -->
  <rect x="50" y="84" width="56" height="8" rx="4" fill="#10b981" opacity="0.7"/>
  
  <!-- 디자인 요소 (원형) -->
  <circle cx="118" cy="73" r="14" fill="#fbbf24" opacity="0.9"/>
  
  <!-- AI 요소 (별표) -->
  <path d="M146 34 L150 45 L162 45 L152 52 L156 63 L146 56 L136 63 L140 52 L130 45 L142 45 Z" fill="#ffffff" opacity="0.9"/>
  
  <!-- 장식 요소 (작은 점들) -->
  <circle cx="56" cy="112" r="4.5" fill="#2563eb" opacity="0.6"/>
  <circle cx="73" cy="112" r="4.5" fill="#10b981" opacity="0.6"/>
  <circle cx="90" cy="112" r="4.5" fill="#fbbf24" opacity="0.6"/>
</svg>

