<svg width="32" height="32" viewBox="0 0 32 32" fill="none" xmlns="http://www.w3.org/2000/svg">
  <!-- 배경 그라데이션 -->
  <defs>
    <linearGradient id="bgGradient" x1="0" y1="0" x2="32" y2="32" gradientUnits="userSpaceOnUse">
      <stop offset="0%" stop-color="#2563eb"/>
      <stop offset="100%" stop-color="#10b981"/>
    </linearGradient>
    <linearGradient id="cardGradient" x1="0" y1="0" x2="16" y2="16" gradientUnits="userSpaceOnUse">
      <stop offset="0%" stop-color="#ffffff" stop-opacity="0.95"/>
      <stop offset="100%" stop-color="#ffffff" stop-opacity="0.85"/>
    </linearGradient>
  </defs>
  
  <!-- 배경 -->
  <rect width="32" height="32" rx="6" fill="url(#bgGradient)"/>
  
  <!-- 배너 카드 (주요 요소) -->
  <rect x="6" y="8" width="20" height="14" rx="2" fill="url(#cardGradient)" stroke="#ffffff" stroke-width="0.5" opacity="0.9"/>
  
  <!-- 텍스트 라인 1 (메인 카피) -->
  <rect x="9" y="11" width="14" height="2" rx="1" fill="#2563eb" opacity="0.8"/>
  
  <!-- 텍스트 라인 2 (서브 카피) -->
  <rect x="9" y="15" width="10" height="1.5" rx="0.75" fill="#10b981" opacity="0.7"/>
  
  <!-- 디자인 요소 (원형) -->
  <circle cx="21" cy="13" r="2.5" fill="#fbbf24" opacity="0.9"/>
  
  <!-- AI 요소 (별표) -->
  <path d="M26 6 L27 9 L30 9 L27.5 11 L28.5 14 L26 12 L23.5 14 L24.5 11 L22 9 L25 9 Z" fill="#ffffff" opacity="0.9"/>
  
  <!-- 장식 요소 (작은 점들) -->
  <circle cx="10" cy="20" r="0.8" fill="#2563eb" opacity="0.6"/>
  <circle cx="13" cy="20" r="0.8" fill="#10b981" opacity="0.6"/>
  <circle cx="16" cy="20" r="0.8" fill="#fbbf24" opacity="0.6"/>
</svg>

